<svg width="20" height="20" viewBox="0 0 20 20" fill="none" xmlns="http://www.w3.org/2000/svg">
<g id="&#225;&#132;&#146;&#225;&#133;&#161;&#225;&#134;&#171;&#225;&#132;&#128;&#225;&#133;&#167;&#225;&#134;&#188;-&#225;&#132;&#139;&#225;&#133;&#175;&#225;&#134;&#171;&#225;&#132;&#146;&#225;&#133;&#167;&#225;&#134;&#188;" clip-path="url(#clip0_548_5120)">
<path id="&#237;&#131;&#128;&#236;&#155;&#144; 18" d="M10 20C15.5228 20 20 15.5228 20 10C20 4.47715 15.5228 0 10 0C4.47715 0 0 4.47715 0 10C0 15.5228 4.47715 20 10 20Z" fill="#142C67"/>
<g id="&#237;&#149;&#156;&#234;&#178;&#189;">
<path id="&#237;&#149;&#169;&#236;&#185;&#152;&#234;&#184;&#176; 1" d="M11.9955 11.675C12.0107 11.4594 12.0686 11.2489 12.1657 11.0558C12.2628 10.8627 12.3972 10.6907 12.5612 10.5499C12.7253 10.4091 12.9156 10.3022 13.1212 10.2355C13.3268 10.1687 13.5436 10.1434 13.759 10.161C14.0415 10.1599 14.3212 10.2166 14.581 10.3275V9.4275H13.525V9.0375H14.581V8.4685H13.5595V8.075H14.5815V7.6425C14.5922 7.45768 14.5297 7.27607 14.4075 7.137H15.531V11.6275C15.531 11.644 15.531 11.6605 15.531 11.6775C15.5151 11.8936 15.4565 12.1045 15.3586 12.2979C15.2608 12.4912 15.1255 12.6633 14.9607 12.8041C14.796 12.9448 14.6049 13.0516 14.3987 13.1181C14.1924 13.1846 13.975 13.2095 13.759 13.1915C13.5434 13.2091 13.3264 13.1837 13.1206 13.1168C12.9149 13.0499 12.7244 12.9428 12.5604 12.8017C12.3964 12.6606 12.262 12.4884 12.165 12.295C12.068 12.1016 12.0104 11.8908 11.9955 11.675ZM12.8955 11.681C12.9005 12.331 13.2455 12.781 13.756 12.781C14.2665 12.781 14.6205 12.331 14.6255 11.681C14.621 11.031 14.2755 10.581 13.756 10.581C13.2365 10.581 12.903 11.033 12.9 11.681H12.8955ZM5.664 12.973C5.2835 12.973 5.153 12.873 5.153 12.5095V11.424C5.1598 11.249 5.11456 11.0758 5.023 10.9265H6.138V12.5805H9.125V12.973H5.664ZM7.9225 11.273V7.635C7.9416 7.45569 7.8929 7.27572 7.786 7.1305H8.9V8.526H9.8645V8.919H8.9V10.854C8.9 11.154 8.7645 11.2755 8.4875 11.2755L7.9225 11.273ZM10.258 10.265C11.681 10.0305 12.53 9.151 12.53 7.7595H10.588V7.3685H13.195C13.2424 7.36588 13.2898 7.37406 13.3336 7.39245C13.3774 7.41083 13.4165 7.43892 13.4478 7.47461C13.4792 7.51029 13.502 7.55264 13.5146 7.59844C13.5272 7.64424 13.5292 7.6923 13.5205 7.739C13.386 9.4815 12.2705 10.316 10.4345 10.531L10.258 10.265ZM3.965 9.077C3.96635 8.84366 4.02579 8.61432 4.13796 8.40971C4.25013 8.20509 4.4115 8.03163 4.6075 7.905H3.75V7.512H5.0615V7.4055C5.07279 7.26268 5.03658 7.12012 4.9585 7H6.04V7.512H7.35V7.905H6.4795C6.67602 8.03128 6.83793 8.20459 6.95056 8.40924C7.06319 8.61389 7.12297 8.84341 7.1245 9.077C7.11769 9.27662 7.07108 9.47287 6.9874 9.65424C6.90372 9.83561 6.78467 9.99844 6.63722 10.1332C6.48976 10.2679 6.31689 10.3718 6.12873 10.4389C5.94058 10.5059 5.74093 10.5347 5.5415 10.5235C5.3426 10.5338 5.14365 10.5043 4.95625 10.4369C4.76885 10.3695 4.59675 10.2654 4.45 10.1307C4.30325 9.9961 4.18479 9.83357 4.10152 9.65265C4.01825 9.47174 3.97184 9.27604 3.965 9.077ZM4.815 9.0825C4.8195 9.6985 5.1085 10.127 5.5395 10.127C5.9705 10.127 6.2685 9.7 6.273 9.0825C6.269 8.467 5.976 8.0375 5.5415 8.0375C5.107 8.0375 4.8215 8.467 4.8165 9.0825H4.815Z" fill="white"/>
</g>
</g>
<defs>
<clipPath id="clip0_548_5120">
<rect width="20" height="20" fill="white"/>
</clipPath>
</defs>
</svg>
