<svg xmlns="http://www.w3.org/2000/svg" width="44" height="22" fill="none"><g clip-path="url(#a)"><path fill="#121212" fill-rule="evenodd" d="M0 .001h25.737v22H0v-22Z" clip-rule="evenodd"/><path fill="#fff" d="M16.267 15.738a2.573 2.573 0 0 1 2.76-2.408 3.21 3.21 0 0 1 1.29.265v-1.426h-1.655v-.625h1.654v-.9h-1.6v-.63h1.6v-.688a1.128 1.128 0 0 0-.273-.8h1.76v7.136a.725.725 0 0 1 0 .078 2.582 2.582 0 0 1-2.775 2.405 2.571 2.571 0 0 1-2.76-2.407Zm1.413.009c.008 1.031.545 1.747 1.347 1.747.802 0 1.354-.716 1.362-1.747.008-1.031-.553-1.748-1.362-1.748s-1.336.718-1.347 1.748ZM6.491 17.805c-.6 0-.8-.162-.8-.737v-1.73a1.43 1.43 0 0 0-.2-.791h1.74v2.63h4.677v.628H6.491Zm3.534-2.7V9.316a1.164 1.164 0 0 0-.213-.8h1.745v2.215h1.511v.625h-1.51v3.076c0 .478-.212.671-.646.671l-.887.002Zm3.521-1.6a3.836 3.836 0 0 0 3.56-3.984h-3.044V8.89h4.083a.5.5 0 0 1 .51.59c-.212 2.77-1.955 4.1-4.834 4.438l-.275-.413Zm-9.719-1.9a2.248 2.248 0 0 1 1.007-1.862H3.491v-.624h2.054V8.95a1.041 1.041 0 0 0-.16-.645h1.692v.814h2.054v.624H7.766a2.242 2.242 0 0 1 1.01 1.862 2.365 2.365 0 0 1-2.48 2.3 2.361 2.361 0 0 1-2.469-2.3Zm1.336.009c.007.979.46 1.66 1.134 1.66.675 0 1.14-.681 1.146-1.66.007-.979-.465-1.66-1.146-1.66-.68 0-1.128.684-1.135 1.662l.001-.002Z"/><g fill="#121212"><path d="M32.73 18.774a2.892 2.892 0 0 1-1.037-.172 2 2 0 0 1-1.23-1.258 3.058 3.058 0 0 1-.158-1.02v-4.648h-.811a.427.427 0 0 1-.443-.469v-.9l1.38-.25.468-2.233a.466.466 0 0 1 .51-.376h1.2v2.626h2.224v1.605h-2.218v4.5a.871.871 0 0 0 .171.568.593.593 0 0 0 .489.209.94.94 0 0 0 .484-.121l.155-.083a.308.308 0 0 1 .146-.038.3.3 0 0 1 .167.045c.055.042.1.096.134.156l.694 1.1a3.361 3.361 0 0 1-1.078.568 4.052 4.052 0 0 1-1.247.191ZM44 10.02l-3.387 8.62h-2.09l-3.386-8.62h1.915a.711.711 0 0 1 .418.117.632.632 0 0 1 .234.3l1.447 4.265a14.95 14.95 0 0 1 .443 1.68c.061-.279.128-.556.2-.832.072-.276.16-.559.264-.848l1.5-4.265a.57.57 0 0 1 .225-.3.669.669 0 0 1 .393-.117H44Z"/></g></g><defs><clipPath id="a"><path fill="#fff" d="M0 .001h44v22H0z"/></clipPath></defs></svg>