<svg xmlns="http://www.w3.org/2000/svg" width="28" height="16" fill="none"><g clip-path="url(#a)"><path fill="#121212" d="M4 15.891 1.112 2.283C.816.947.75.721.318.611L0 .517V.201h4.019v.316l-.342.069c-.725.158-.657.882-.452 1.856l1.793 8.875 1.318-7.064-.477-2.422C5.677.971 5.609.7 5.153.586L4.86.517V.201h4.155v.316l-.499.094c-.749.135-.635.951-.454 1.833l1.726 8.875 1.7-8.4c.322-1.744.162-2.175-.52-2.308l-.474-.09v-.32h2.884v.316l-.318.114c-.454.158-.568.589-.887 2.083L9.4 15.887h-.59L6.676 5.611 4.747 15.889 4 15.891Zm19.73 0h-.033a2.674 2.674 0 0 1-2.6-2.743v-.197a1.559 1.559 0 0 1 1.446-1.64c.048 0 .096.004.144.01a1.042 1.042 0 0 1 .931 1.222c-.068 1.132-1.3 1.087-1.34 1.789-.046.43.522 1.063 1.247 1.063 1.273 0 1.273-1.606 1.273-2.83V1.582c0-.634-.2-.814-.7-.927l-.571-.138V.201H28v.316l-.5.137c-.454.111-.613.316-.613.95v10.595c0 2.381-1.184 3.647-3.014 3.69h-.1l-.043.002Zm-6.673 0c-1.316 0-1.769-.906-2.2-.906-.25 0-.545.068-.772.814h-.273v-5.162h.341c.273 2.922 1.363 4.756 2.884 4.756 1.022 0 1.726-.928 1.726-2.6 0-3.531-5.065-5.048-5.065-8.964 0-2.106 1.067-3.713 3-3.713 1.25 0 1.5.814 2.022.814.3 0 .5-.225.613-.723h.267v5.155h-.341C18.985 2.758 18.3.611 16.669.611c-1.137 0-1.34 1.132-1.34 1.9 0 3.372 5.063 4.527 5.063 9.235 0 2.4-1.317 4.144-3.337 4.144l.002.001Zm4.044-2.9v.153l-.001-.151.001-.002Z"/></g><defs><clipPath id="a"><path fill="#fff" d="M0 .111h28v15.78H0z"/></clipPath></defs></svg>