<svg xmlns="http://www.w3.org/2000/svg" width="24" height="24" fill="none"><path stroke="#121212" stroke-linecap="round" stroke-linejoin="round" stroke-width="2" d="M14 2.27v4.131c0 .56 0 .84.109 1.054a1 1 0 0 0 .437.437c.214.109.494.109 1.054.109h4.13m-10.73 8 2 2 4.5-4.5M14 2.001H8.8c-1.68 0-2.52 0-3.162.327a3 3 0 0 0-1.311 1.311C4 4.281 4 5.121 4 6.801v10.4c0 1.68 0 2.52.327 3.162a3 3 0 0 0 1.311 1.311c.642.327 1.482.327 3.162.327h6.4c1.68 0 2.52 0 3.162-.327a3 3 0 0 0 1.311-1.311C20 19.72 20 18.88 20 17.2v-9.2l-6-6Z"/></svg>