<svg xmlns="http://www.w3.org/2000/svg" width="85" height="32" fill="none"><defs><linearGradient id="a" x1=".257" x2="69.242" y1="15.851" y2="16.958" gradientUnits="userSpaceOnUse"><stop offset="0%" stop-color="#569AFF"><animate attributeName="stop-color" dur="5s" repeatCount="indefinite" values="#569AFF;#EA35B7;#FF5648;#FB9905;#569AFF"/></stop><stop offset="33%" stop-color="#EA35B7"><animate attributeName="stop-color" dur="5s" repeatCount="indefinite" values="#EA35B7;#FF5648;#FB9905;#569AFF;#EA35B7"/></stop><stop offset="66%" stop-color="#FF5648"><animate attributeName="stop-color" dur="5s" repeatCount="indefinite" values="#FF5648;#FB9905;#569AFF;#EA35B7;#FF5648"/></stop><stop offset="100%" stop-color="#FB9905"><animate attributeName="stop-color" dur="5s" repeatCount="indefinite" values="#FB9905;#569AFF;#EA35B7;#FF5648;#FB9905"/></stop></linearGradient></defs><path fill="#142C67" d="M58.2 22.28a4.995 4.995 0 0 1 5.387-4.624 6.334 6.334 0 0 1 2.511.508v-2.749h-3.225v-1.191h3.225v-1.738h-3.12v-1.202H66.1V9.963a2.15 2.15 0 0 0-.532-1.545H69v13.87a5.011 5.011 0 0 1-5.413 4.625 4.993 4.993 0 0 1-5.386-4.633Zm2.75.019c.015 1.985 1.069 3.36 2.628 3.36 1.56 0 2.641-1.375 2.656-3.36-.013-1.986-1.069-3.36-2.656-3.36-1.587 0-2.605 1.38-2.614 3.36h-.014Zm-22.09 3.946c-1.162 0-1.56-.305-1.56-1.416v-3.315a2.706 2.706 0 0 0-.398-1.52h3.406v5.052h9.124v1.2H38.86Zm6.899-5.193V9.94a2.205 2.205 0 0 0-.417-1.541h3.403v4.262h2.946v1.2h-2.946v5.912c0 .916-.414 1.287-1.26 1.287l-1.726-.008Zm7.134-3.079c4.347-.716 6.94-3.402 6.94-7.653h-5.932V9.126h7.964a.958.958 0 0 1 .994 1.131c-.41 5.323-3.818 7.872-9.427 8.529l-.539-.813ZM33.67 14.345a4.292 4.292 0 0 1 1.963-3.58h-2.62V9.563h4.007v-.325A1.986 1.986 0 0 0 36.705 8h3.304v1.564h4.001v1.2h-2.659a4.29 4.29 0 0 1 1.97 3.58 4.58 4.58 0 0 1-4.835 4.419 4.582 4.582 0 0 1-4.816-4.419Zm2.597.016c.014 1.882.896 3.19 2.213 3.19 1.316 0 2.227-1.303 2.24-3.19-.012-1.88-.907-3.192-2.234-3.192s-2.2 1.312-2.215 3.192h-.004Z"/><path fill="url(#a)" d="M58.2 22.28a4.995 4.995 0 0 1 5.387-4.624 6.334 6.334 0 0 1 2.511.508v-2.749h-3.225v-1.191h3.225v-1.738h-3.12v-1.202H66.1V9.963a2.15 2.15 0 0 0-.532-1.545H69v13.87a5.011 5.011 0 0 1-5.413 4.625 4.993 4.993 0 0 1-5.386-4.633Zm2.75.019c.015 1.985 1.069 3.36 2.628 3.36 1.56 0 2.641-1.375 2.656-3.36-.013-1.986-1.069-3.36-2.656-3.36-1.587 0-2.605 1.38-2.614 3.36h-.014Zm-22.09 3.946c-1.162 0-1.56-.305-1.56-1.416v-3.315a2.706 2.706 0 0 0-.398-1.52h3.406v5.052h9.124v1.2H38.86Zm6.899-5.193V9.94a2.205 2.205 0 0 0-.417-1.541h3.403v4.262h2.946v1.2h-2.946v5.912c0 .916-.414 1.287-1.26 1.287l-1.726-.008Zm7.134-3.079c4.347-.716 6.94-3.402 6.94-7.653h-5.932V9.126h7.964a.958.958 0 0 1 .994 1.131c-.41 5.323-3.818 7.872-9.427 8.529l-.539-.813ZM33.67 14.345a4.292 4.292 0 0 1 1.963-3.58h-2.62V9.563h4.007v-.325A1.986 1.986 0 0 0 36.705 8h3.304v1.564h4.001v1.2h-2.659a4.29 4.29 0 0 1 1.97 3.58 4.58 4.58 0 0 1-4.835 4.419 4.582 4.582 0 0 1-4.816-4.419Zm2.597.016c.014 1.882.896 3.19 2.213 3.19 1.316 0 2.227-1.303 2.24-3.19-.012-1.88-.907-3.192-2.234-3.192s-2.2 1.312-2.215 3.192h-.004Z"/><path fill="#142C67" d="M.257 26.134V25.6l.487-.146c.308-.098.519-.252.632-.463.114-.227.17-.519.17-.876V12.067c0-.325-.04-.585-.12-.78-.082-.21-.285-.373-.61-.486l-.56-.22v-.535h4.65L9.48 21.948l4.308-11.902h4.746v.536l-.39.122c-.308.097-.518.251-.632.462-.114.195-.17.454-.17.779-.017.941-.025 1.882-.025 2.823v6.645c0 .94.008 1.874.025 2.799 0 .34.04.6.121.778.082.179.276.325.585.439l.486.17v.535H12.62V25.6l.535-.17c.309-.114.495-.26.56-.439.081-.194.122-.454.122-.778V18.93l.049-6.523L8.92 26.134H7.558l-5.232-13.58.097 5.549v6.036c0 .357.049.64.146.851.097.211.3.357.608.439l.487.17v.535H.257Z"/><path fill="url(#a)" d="M.257 26.134V25.6l.487-.146c.308-.098.519-.252.632-.463.114-.227.17-.519.17-.876V12.067c0-.325-.04-.585-.12-.78-.082-.21-.285-.373-.61-.486l-.56-.22v-.535h4.65L9.48 21.948l4.308-11.902h4.746v.536l-.39.122c-.308.097-.518.251-.632.462-.114.195-.17.454-.17.779-.017.941-.025 1.882-.025 2.823v6.645c0 .94.008 1.874.025 2.799 0 .34.04.6.121.778.082.179.276.325.585.439l.486.17v.535H12.62V25.6l.535-.17c.309-.114.495-.26.56-.439.081-.194.122-.454.122-.778V18.93l.049-6.523L8.92 26.134H7.558l-5.232-13.58.097 5.549v6.036c0 .357.049.64.146.851.097.211.3.357.608.439l.487.17v.535H.257Z"/><path fill="#142C67" d="M21.01 32c-.65 0-1.16-.154-1.534-.462-.373-.309-.56-.714-.56-1.217 0-.455.154-.82.462-1.096.325-.26.682-.389 1.071-.389.406 0 .739.073.998.219.26.146.487.357.682.633l.146.195c.373.454.722.446 1.046-.025.211-.276.414-.616.609-1.022.21-.406.438-.941.681-1.606l-4.624-11.05c-.114-.309-.243-.544-.39-.706-.145-.178-.364-.325-.657-.438l-.413-.146v-.438h6.011v.438l-.51.146c-.358.114-.552.292-.585.535-.016.228.04.528.17.9l2.483 6.475 2.385-6.523c.13-.357.179-.657.146-.9-.032-.244-.235-.406-.608-.487l-.536-.146v-.438h3.627v.438l-.536.17c-.357.098-.616.244-.779.438-.146.179-.283.447-.413.804l-3.894 10.465c-.65 1.785-1.315 3.1-1.996 3.943-.666.86-1.493 1.29-2.483 1.29Z"/><path fill="url(#a)" d="M21.01 32c-.65 0-1.16-.154-1.534-.462-.373-.309-.56-.714-.56-1.217 0-.455.154-.82.462-1.096.325-.26.682-.389 1.071-.389.406 0 .739.073.998.219.26.146.487.357.682.633l.146.195c.373.454.722.446 1.046-.025.211-.276.414-.616.609-1.022.21-.406.438-.941.681-1.606l-4.624-11.05c-.114-.309-.243-.544-.39-.706-.145-.178-.364-.325-.657-.438l-.413-.146v-.438h6.011v.438l-.51.146c-.358.114-.552.292-.585.535-.016.228.04.528.17.9l2.483 6.475 2.385-6.523c.13-.357.179-.657.146-.9-.032-.244-.235-.406-.608-.487l-.536-.146v-.438h3.627v.438l-.536.17c-.357.098-.616.244-.779.438-.146.179-.283.447-.413.804l-3.894 10.465c-.65 1.785-1.315 3.1-1.996 3.943-.666.86-1.493 1.29-2.483 1.29Z"/><path fill="url(#a)" fill-rule="evenodd" d="M71.257.069a.04.04 0 0 1 .038.027l.427 1.174c.07.193.103.282.154.357a.72.72 0 0 0 .164.174c.07.053.155.088.338.162l1.11.452a.043.043 0 0 1 .026.04c0 .018-.01.033-.026.04l-1.11.451c-.183.075-.267.11-.338.163a.72.72 0 0 0-.165.173c-.05.075-.083.165-.153.358l-.427 1.174a.04.04 0 0 1-.038.027.04.04 0 0 1-.038-.027l-.427-1.174c-.07-.193-.103-.283-.153-.358a.72.72 0 0 0-.165-.173c-.07-.054-.155-.088-.338-.163l-1.11-.451a.043.043 0 0 1-.026-.04c0-.018.01-.034.026-.04l1.11-.452c.183-.074.268-.109.338-.162a.72.72 0 0 0 .165-.174c.05-.075.083-.164.153-.357L71.22.096a.04.04 0 0 1 .038-.027Zm7.598 0a.1.1 0 0 1 .092.066l1.04 2.857c.17.47.25.687.372.87.11.163.246.306.4.423.173.13.379.214.823.394l2.702 1.1a.104.104 0 0 1 .063.096.104.104 0 0 1-.063.098L81.582 7.07c-.444.181-.65.265-.822.395a1.75 1.75 0 0 0-.4.423c-.123.182-.203.4-.374.87l-1.04 2.856a.099.099 0 0 1-.091.067.099.099 0 0 1-.092-.067l-1.04-2.857c-.17-.47-.25-.687-.373-.869a1.75 1.75 0 0 0-.4-.423c-.172-.13-.378-.214-.822-.395l-2.703-1.098a.104.104 0 0 1-.063-.098c0-.043.026-.081.064-.097l2.702-1.099c.444-.18.65-.265.822-.394.155-.117.29-.26.4-.423.123-.183.203-.4.374-.87L78.763.135a.099.099 0 0 1 .092-.066Zm-5.46 9.254a.04.04 0 0 0-.037-.027.04.04 0 0 0-.038.027l-.427 1.174c-.07.193-.103.283-.154.358a.72.72 0 0 1-.164.173c-.07.054-.155.088-.338.163l-1.11.451a.043.043 0 0 0-.026.04c0 .018.01.034.025.04l1.111.452c.183.074.267.109.338.162a.72.72 0 0 1 .164.174c.05.075.084.164.154.357l.427 1.174a.04.04 0 0 0 .038.028.04.04 0 0 0 .037-.028l.428-1.174c.07-.193.103-.282.153-.357a.722.722 0 0 1 .165-.174c.07-.053.155-.088.337-.162l1.11-.452a.043.043 0 0 0 .027-.04.043.043 0 0 0-.026-.04l-1.11-.451c-.183-.075-.268-.11-.338-.163a.722.722 0 0 1-.165-.173c-.05-.075-.083-.165-.153-.358l-.427-1.174Z" clip-rule="evenodd"/></svg>