<svg xmlns="http://www.w3.org/2000/svg" width="20" height="20" fill="none"><g clip-path="url(#a)"><path fill="#121212" d="M10 .202a9.8 9.8 0 1 0 10 9.8 9.901 9.901 0 0 0-10-9.8Zm.833 13.11v-2.5h2.495a14.762 14.762 0 0 1-.38 2.678c-.7-.095-1.406-.154-2.113-.177h-.002Zm1.631 1.767a9.707 9.707 0 0 1-1.63 2.822v-2.956a19.01 19.01 0 0 1 1.63.134Zm-1.629-5.894V6.724c.711-.025 1.42-.086 2.124-.183.204.869.328 1.754.371 2.645l-2.495-.001Zm0-4.094V2.1a9.728 9.728 0 0 1 1.643 2.854c-.537.069-1.086.112-1.643.135Zm2.253-2.668c1.02.4 1.95.995 2.741 1.753-.55.198-1.112.364-1.682.495a12.475 12.475 0 0 0-1.06-2.25l.001.002ZM7.054 13.495a14.672 14.672 0 0 1-.38-2.677h2.494v2.5c-.707.023-1.414.082-2.116.177h.002Zm2.114 1.45V17.9a9.726 9.726 0 0 1-1.63-2.822 18.972 18.972 0 0 1 1.628-.134h.002ZM6.674 9.184a14.7 14.7 0 0 1 .371-2.645c.704.097 1.413.158 2.123.183v2.463l-2.494-.001Zm.853-4.229a9.768 9.768 0 0 1 1.641-2.854v2.99a19.253 19.253 0 0 1-1.643-.136h.002Zm-1.67-.285c-.57-.133-1.132-.3-1.683-.5a8.4 8.4 0 0 1 2.742-1.753A12.59 12.59 0 0 0 5.854 4.67h.002Zm-.458 1.566a16.3 16.3 0 0 0-.41 2.948H1.711a8.013 8.013 0 0 1 1.347-3.69c.76.307 1.542.555 2.34.742h.001Zm.007 7.562c-.794.186-1.573.432-2.33.735a8 8 0 0 1-1.365-3.716H4.99c.047 1.004.186 2.002.415 2.98h.002Zm.461 1.566c.276.77.627 1.512 1.047 2.214a8.344 8.344 0 0 1-2.713-1.727 15.13 15.13 0 0 1 1.664-.487h.002Zm8.27 0c.565.13 1.12.293 1.666.487a8.4 8.4 0 0 1-2.714 1.728c.42-.703.77-1.445 1.046-2.215h.002Zm.461-1.566c.231-.979.37-1.977.417-2.981h3.28a8.022 8.022 0 0 1-1.366 3.716 16.368 16.368 0 0 0-2.333-.735h.002Zm.417-4.614a16.383 16.383 0 0 0-.41-2.948c.798-.187 1.581-.435 2.341-.741a8.014 8.014 0 0 1 1.347 3.689h-3.278Z"/></g><defs><clipPath id="a"><path fill="#fff" d="M0 .202h20V19.8H0z"/></clipPath></defs></svg>