<svg xmlns="http://www.w3.org/2000/svg" width="26" height="21" fill="none"><path fill="#121212" stroke="#121212" d="m24.041 16.602.452-.044V1.7l-.543.047a32.557 32.557 0 0 0-10.146 2.56l-.301.13V19.065l.67-.242a40.624 40.624 0 0 1 9.868-2.221ZM2.05 1.748 1.506 1.7v14.858l.452.044a40.624 40.624 0 0 1 9.868 2.221l.67.242V4.437l-.302-.13a32.83 32.83 0 0 0-10.145-2.56Zm10.714 1.72.237.128.237-.128C15.971 1.997 20.927.974 24.992.66c.269-.021.508.195.508.485v15.837a.52.52 0 0 1-.49.513A37.846 37.846 0 0 0 13 20.365a37.86 37.86 0 0 0-12.01-2.87.52.52 0 0 1-.49-.513V1.145c0-.29.239-.506.508-.485 4.064.313 9.021 1.337 11.755 2.808Z"/><path stroke="#AAA" stroke-linecap="round" d="M3.984 6.324c1.263.127 3.806.546 6.061 1.546m-6.06 1.545c1.262.127 3.805.546 6.06 1.546m-6.06 1.546c1.262.126 3.805.545 6.06 1.545M22.05 6.324c-1.263.127-3.806.546-6.061 1.546m6.06 1.545c-1.262.127-3.805.546-6.06 1.546m6.06 1.546c-1.262.126-3.805.545-6.06 1.545"/></svg>